<?xml version="1.0" encoding="UTF-8"?>
<svg enable-background="new 0 0 423.8 50.3" version="1.1" viewBox="0 0 423.8 50.3" xml:space="preserve" xmlns="http://www.w3.org/2000/svg" xmlns:xlink="http://www.w3.org/1999/xlink">
<style type="text/css">
	.st0{clip-path:url(#c);}
	.st1{clip-path:url(#a);fill:#E02726;}
	.st2{fill:#454545;}
</style>
		<defs>
			<path id="d" d="m130.2 30.9h19.7l-10.4-17.1-19.1 31h-8.7l23.3-37.2c1-1.5 2.7-2.4 4.6-2.4 1.8 0 3.5 0.9 4.5 2.4l23.4 37.2h-8.7l-4.1-6.9h-20l-4.5-7m90.5 6.9v-32.2h-7.4v35.4c0 1 0.4 1.9 1.1 2.6s1.7 1.2 2.7 1.2h33.7l4.4-6.9-34.5-0.1m-122.3-5.7c7.2 0 13-5.9 13-13.3 0-7.3-5.8-13.2-13-13.2h-32.3v39.2h7.4v-32.3h24.5c3.4 0 6.2 2.8 6.2 6.3s-2.8 6.4-6.2 6.4h-20.8l22.1 19.6h10.7l-14.8-12.7h3.2m-77.8 12.7h22.3c10.6 0 19.2-8.8 19.2-19.6s-8.6-19.6-19.2-19.6h-22.3c-10.6 0-19.2 8.8-19.2 19.6s8.6 19.6 19.2 19.6m21.8-6.9h-21.3c-6.9 0-12.4-5.7-12.4-12.7s5.6-12.7 12.4-12.7h21.3c6.9 0 12.4 5.7 12.4 12.7 0.1 7-5.5 12.7-12.4 12.7m140.4 6.9h22.8l4.3-6.9h-26.6c-6.9 0-12.5-5.7-12.5-12.7s5.6-12.7 12.5-12.7h21.7l4.4-6.9h-26.6c-10.6 0-19.3 8.8-19.3 19.6 0.1 10.8 8.7 19.6 19.3 19.6m90.4-6.9c-5.7 0-10.5-3.9-12-9.2h31.6l4.4-6.9h-36c1.5-5.3 6.3-9.2 12-9.2h21.7l4.3-6.9h-26.5c-10.6 0-19.2 8.8-19.2 19.6s8.6 19.6 19.2 19.6h22.8l4.3-6.9-26.6-0.1m30-28.2c0-1.9 1.5-3.5 3.4-3.5s3.4 1.6 3.4 3.5-1.5 3.5-3.4 3.5-3.4-1.5-3.4-3.5m3.4 4.5c2.4 0 4.3-1.9 4.3-4.4 0-2.4-1.9-4.4-4.3-4.4s-4.3 2-4.3 4.4 1.9 4.4 4.3 4.4m-0.4-7.1c0.6 0 0.9 0 1.3 0.1 0.8 0.3 0.9 1.1 0.9 1.4 0 0.1 0 0.2-0.1 0.4 0 0.2-0.1 0.6-0.6 0.9-0.1 0-0.1 0.1-0.2 0.1l1.1 2h-1.1l-1-1.9h-0.7v1.9h-1v-4.9h1.4m0.4 2.3c0.3 0 0.6 0 0.8-0.3 0.1-0.1 0.1-0.3 0.1-0.4 0-0.3-0.2-0.5-0.4-0.6-0.3-0.1-0.4-0.1-0.9-0.1h-0.3v1.4h0.7"/>
		</defs>
		<clipPath id="c">
			<use xlink:href="#d"/>
		</clipPath>
		<g class="st0">
				<defs>
					<rect id="b" x="1.4" y="2.8" width="310.8" height="43.4"/>
				</defs>
				<clipPath id="a">
					<use xlink:href="#b"/>
				</clipPath>
				<rect class="st1" x="-10.7" y="-6.9" width="333.7" height="63.7"/>
		</g>
	<path class="st2" d="m341.8 19.4c1.9 1.8 2.9 3.9 3.1 6.1h-3.6c-0.4-1.7-1.2-3.1-2.4-4.1s-2.9-1.5-5-1.5c-2.6 0-4.7 0.9-6.3 2.8s-2.4 4.7-2.4 8.6c0 3.2 0.7 5.7 2.2 7.7s3.6 3 6.5 3c2.7 0 4.7-1 6.1-3.1 0.7-1.1 1.3-2.5 1.6-4.3h3.6c-0.3 2.8-1.4 5.2-3.1 7.2-2.1 2.3-5 3.5-8.6 3.5-3.1 0-5.7-1-7.8-2.9-2.8-2.5-4.2-6.4-4.2-11.7 0-4 1-7.3 3.1-9.8 2.3-2.8 5.4-4.2 9.3-4.2 3.4 0 6 0.9 7.9 2.7z"/>
	<path class="st2" d="m349.8 17.5h3.3v27h-3.3v-27z"/>
	<path class="st2" d="m372.6 26.7c1.7 1.7 2.6 4.2 2.6 7.5 0 3.2-0.8 5.8-2.3 7.9s-3.9 3.1-7.1 3.1c-2.7 0-4.8-0.9-6.4-2.7s-2.4-4.3-2.4-7.4c0-3.3 0.8-5.9 2.5-7.9s3.9-2.9 6.7-2.9c2.6-0.1 4.7 0.8 6.4 2.4zm-2 13.1c0.8-1.7 1.2-3.5 1.2-5.5 0-1.8-0.3-3.3-0.9-4.5-0.9-1.8-2.5-2.7-4.8-2.7-2 0-3.5 0.8-4.4 2.3s-1.4 3.4-1.4 5.6c0 2.1 0.5 3.8 1.4 5.2s2.4 2.1 4.3 2.1c2.3 0 3.8-0.8 4.6-2.5z"/>
	<path class="st2" d="m382.9 24.8v13.1c0 1 0.2 1.8 0.5 2.5 0.6 1.2 1.6 1.8 3.2 1.8 2.2 0 3.8-1 4.6-3.1 0.4-1.1 0.7-2.6 0.7-4.5v-9.7h3.3v19.7h-3.1v-2.9c-0.4 0.7-0.9 1.4-1.6 1.9-1.2 1-2.7 1.5-4.5 1.5-2.8 0-4.6-0.9-5.6-2.8-0.5-1-0.8-2.3-0.8-4v-13.5h3.3z"/>
	<path class="st2" d="m411.6 25.4c0.6 0.4 1.3 1 2 1.9v-10h3.2v27.1h-3v-2.7c-0.8 1.2-1.7 2.1-2.7 2.6-1.1 0.5-2.3 0.8-3.6 0.8-2.2 0-4.1-0.9-5.7-2.8-1.6-1.8-2.4-4.3-2.4-7.4 0-2.9 0.7-5.4 2.2-7.5s3.5-3.2 6.3-3.2c1.5 0.2 2.7 0.6 3.7 1.2zm-7.4 14.8c0.9 1.4 2.3 2.1 4.3 2.1 1.5 0 2.8-0.7 3.8-2s1.5-3.2 1.5-5.7-0.5-4.3-1.5-5.5-2.3-1.8-3.8-1.8c-1.7 0-3 0.6-4 1.9s-1.5 3.2-1.5 5.6c-0.1 2.2 0.4 3.9 1.2 5.4z"/>
</svg>
